solid Tetra01
  facet normal 3.123475e-001 9.370426e-001 1.561738e-001
    outer loop
      vertex   0.000000e+000   0.000000e+000   2.000000e+000
      vertex   1.000000e+000   0.000000e+000   0.000000e+000
      vertex  -5.000000e-001   5.000000e-001   0.000000e+000
    endloop
  endfacet
  facet normal -9.701425e-001 0.000000e+000 2.425356e-001
    outer loop
      vertex   0.000000e+000   0.000000e+000   2.000000e+000
      vertex  -5.000000e-001   5.000000e-001   0.000000e+000
      vertex  -5.000000e-001  -5.000000e-001   0.000000e+000
    endloop
  endfacet
  facet normal 3.123475e-001 -9.370426e-001 1.561738e-001
    outer loop
      vertex   0.000000e+000   0.000000e+000   2.000000e+000
      vertex  -5.000000e-001  -5.000000e-001   0.000000e+000
      vertex   1.000000e+000   0.000000e+000   0.000000e+000
    endloop
  endfacet
  facet normal 0.000000e+000 0.000000e+000 -1.000000e+000
    outer loop
      vertex  -5.000000e-001  -5.000000e-001   0.000000e+000
      vertex  -5.000000e-001   5.000000e-001   0.000000e+000
      vertex   1.000000e+000   0.000000e+000   0.000000e+000
    endloop
  endfacet
endsolid Tetra01

solid Tetra01_transed
  facet normal 8.980884e-001 -3.753902e-001 -2.291710e-001
    outer loop
      vertex   2.866048e+000  -1.944504e-001  -4.499889e-001
      vertex   1.885197e+000  -1.988678e+000  -1.354797e+000
      vertex   2.133651e+000  -7.861623e-001  -2.350902e+000
    endloop
  endfacet
  facet normal 2.458848e-002 9.517955e-001 -3.057463e-001
    outer loop
      vertex   2.866048e+000  -1.944504e-001  -4.499889e-001
      vertex   2.133651e+000  -7.861623e-001  -2.350902e+000
      vertex   1.303275e+000  -5.964173e-001  -1.827001e+000
    endloop
  endfacet
  facet normal -6.581072e-001 -1.979184e-002 7.526641e-001
    outer loop
      vertex   2.866048e+000  -1.944504e-001  -4.499889e-001
      vertex   1.303275e+000  -5.964173e-001  -1.827001e+000
      vertex   1.885197e+000  -1.988678e+000  -1.354797e+000
    endloop
  endfacet
  facet normal -5.460035e-001 -4.646511e-001 -6.971223e-001
    outer loop
      vertex   1.303275e+000  -5.964173e-001  -1.827001e+000
      vertex   2.133651e+000  -7.861623e-001  -2.350902e+000
      vertex   1.885197e+000  -1.988678e+000  -1.354797e+000
    endloop
  endfacet
endsolid Tetra01_transed

solid Triprism01_transed
  facet normal -3.212948e-001 -7.176539e-001 -6.178531e-001
    outer loop
      vertex   3.002002e-001  -5.422067e-001   1.643437e+000
      vertex  -6.376686e-001  -2.107765e-001   1.746180e+000
      vertex   2.782752e-002   5.422224e-001   5.254805e-001
    endloop
  endfacet
  facet normal -8.483016e-001 5.081042e-001 -1.490452e-001
    outer loop
      vertex  -6.376686e-001  -2.107765e-001   1.746180e+000
      vertex   6.704171e-001   1.977530e+000   1.761187e+000
      vertex   2.782752e-002   5.422224e-001   5.254805e-001
    endloop
  endfacet
  facet normal -8.483016e-001 5.081042e-001 -1.490452e-001
    outer loop
      vertex   4.921045e-003   1.224531e+000   2.981886e+000
      vertex   6.704171e-001   1.977530e+000   1.761187e+000
      vertex  -6.376686e-001  -2.107765e-001   1.746180e+000
    endloop
  endfacet
  facet normal 9.311793e-001 -1.207403e-001 -3.439867e-001
    outer loop
      vertex   6.704171e-001   1.977530e+000   1.761187e+000
      vertex   3.002002e-001  -5.422067e-001   1.643437e+000
      vertex   2.782752e-002   5.422224e-001   5.254805e-001
    endloop
  endfacet
  facet normal 9.311793e-001 -1.207403e-001 -3.439867e-001
    outer loop
      vertex   6.704171e-001   1.977530e+000   1.761187e+000
      vertex   9.427898e-001   8.931011e-001   2.879143e+000
      vertex   3.002002e-001  -5.422067e-001   1.643437e+000
    endloop
  endfacet
  facet normal -1.310411e-001 -6.124760e-001 7.795520e-001
    outer loop
      vertex   3.002002e-001  -5.422067e-001   1.643437e+000
      vertex   4.921045e-003   1.224531e+000   2.981886e+000
      vertex  -6.376686e-001  -2.107765e-001   1.746180e+000
    endloop
  endfacet
  facet normal -1.310411e-001 -6.124760e-001 7.795520e-001
    outer loop
      vertex   9.427898e-001   8.931011e-001   2.879143e+000
      vertex   4.921045e-003   1.224531e+000   2.981886e+000
      vertex   3.002002e-001  -5.422067e-001   1.643437e+000
    endloop
  endfacet
  facet normal 3.212948e-001 7.176539e-001 6.178531e-001
    outer loop
      vertex   4.921045e-003   1.224531e+000   2.981886e+000
      vertex   9.427898e-001   8.931011e-001   2.879143e+000
      vertex   6.704171e-001   1.977530e+000   1.761187e+000
    endloop
  endfacet
endsolid Triprism01_transed

