solid Tetra01
  facet normal 3.123475e-001 9.370426e-001 1.561738e-001
    outer loop
      vertex   0.000000e+000   0.000000e+000   2.000000e+000
      vertex   1.000000e+000   0.000000e+000   0.000000e+000
      vertex  -5.000000e-001   5.000000e-001   0.000000e+000
    endloop
  endfacet
  facet normal -9.701425e-001 0.000000e+000 2.425356e-001
    outer loop
      vertex   0.000000e+000   0.000000e+000   2.000000e+000
      vertex  -5.000000e-001   5.000000e-001   0.000000e+000
      vertex  -5.000000e-001  -5.000000e-001   0.000000e+000
    endloop
  endfacet
  facet normal 3.123475e-001 -9.370426e-001 1.561738e-001
    outer loop
      vertex   0.000000e+000   0.000000e+000   2.000000e+000
      vertex  -5.000000e-001  -5.000000e-001   0.000000e+000
      vertex   1.000000e+000   0.000000e+000   0.000000e+000
    endloop
  endfacet
  facet normal 0.000000e+000 0.000000e+000 -1.000000e+000
    outer loop
      vertex  -5.000000e-001  -5.000000e-001   0.000000e+000
      vertex  -5.000000e-001   5.000000e-001   0.000000e+000
      vertex   1.000000e+000   0.000000e+000   0.000000e+000
    endloop
  endfacet
endsolid Tetra01

